<mxfile host="app.diagrams.net" modified="2024-06-28T02:17:05.371Z" agent="Mozilla/5.0 (Windows NT 10.0; Win64; x64) AppleWebKit/537.36 (KHTML, like Gecko) Chrome/126.0.0.0 Safari/537.36" version="24.6.4" etag="WwX_HgeNtJbM837N0mY0" type="github">
  <diagram name="ページ1" id="AsfG8PpupXGveHyLWFJU">
    <mxGraphModel>
      <root>
        <mxCell id="0" />
        <mxCell id="1" parent="0" />
      </root>
    </mxGraphModel>
  </diagram>
</mxfile>
